<?xml version="1.0" encoding="utf-8"?>
<!-- Generator: Adobe Illustrator 21.0.2, SVG Export Plug-In . SVG Version: 6.00 Build 0)  -->
<svg version="1.1" id="Capa_1" xmlns="http://www.w3.org/2000/svg" xmlns:xlink="http://www.w3.org/1999/xlink" x="0px" y="0px"
	 viewBox="0 0 200 200" style="enable-background:new 0 0 200 200;" xml:space="preserve">
<style type="text/css">
	.st0{fill:#FA6900;}
</style>
<path class="st0" d="M136.8,88.6l-0.1-0.1l55.5-14.6c-11.5-38.1-47.5-65.9-90.1-65.9c-51.9,0-94,41.2-94,92.1s42.1,92.1,94,92.1
	c39.9,0,73.9-24.3,87.6-58.6l-63.8-18.7c-0.8,1.5-1.6,2.9-2.3,4.1c-0.8,1.3-1.4,2.8-1.6,4.3c-0.6,4.7-0.5,12.2-5.7,14.8
	c-6.5,3.2-26.4,1.6-29.2,0c-2.6-1.5-3.5-6.6-5.1-16c-0.2-0.9-0.5-1.9-0.9-2.7c-2.6-5.1-9.7-19.1-10.5-20.9
	c-2.1-4.4-3.3-9.3-3.3-14.5c0-18.9,15.4-34.1,34.7-34.1c19.3-0.1,35,15.2,35,34.1L136.8,88.6z M101.9,163.8c-3.8,0-6.8-1.3-6.8-5
	h13.7C108.8,162.6,105.7,163.8,101.9,163.8z M114.2,153.8c0,1.6-1.3,2.9-3,2.9H91.9c-1.6,0-3-1.3-3-2.9v-0.4c0-1.6,1.3-2.9,3-2.9
	h19.3c1.6,0,3,1.3,3,2.9V153.8z M117,145.4c0,1.6-1.3,2.9-3,2.9H89.1c-1.6,0-3-1.3-3-2.9V145c0-1.6,1.3-2.9,3-2.9H114
	c1.6,0,3,1.3,3,2.9V145.4z"/>
</svg>
