<?xml version="1.0" encoding="utf-8"?>
<!-- Generator: Adobe Illustrator 21.0.2, SVG Export Plug-In . SVG Version: 6.00 Build 0)  -->
<svg version="1.1" id="Capa_1" xmlns="http://www.w3.org/2000/svg" xmlns:xlink="http://www.w3.org/1999/xlink" x="0px" y="0px"
	 viewBox="0 0 512 512" style="enable-background:new 0 0 512 512;" xml:space="preserve">
<style type="text/css">
	.st0{fill:#FFFFFF;}
</style>
<path class="st0" d="M466.5,179.1c-2.4-8.1-7.1-15.4-13.1-21.4L328.3,32.6c-8.3-8.3-18.5-14.8-29.9-17.7
	c-46.1-11.8-80.6,23.4-80.6,23.4L50.7,208.5c-10.6,10.8-17.5,25-18.3,40.1c-0.3,6.4,0.1,12.8,1.3,19.1c3.1,16.2,11.8,30.8,23.4,42.5
	l165.1,165.1c14.3,14.3,33.3,23.6,53.5,24.3c13.6,0.5,28.2-2.2,42.5-10.1c4.4-2.4,8.5-5.6,12-9.2l56.6-58l-55.3-56.7L277,421.3
	l-165-165L278.5,88.5l110.7,110.7L279.6,308.9l55.3,55.3l114.4-114.4c7.3-7.3,12.6-16.1,15.7-25.9c1.1-3.6,2.2-7.5,3-11.8
	C470.2,201,469.5,189.7,466.5,179.1z"/>
</svg>
