<?xml version="1.0" encoding="utf-8"?>
<!-- Generator: Adobe Illustrator 21.0.2, SVG Export Plug-In . SVG Version: 6.00 Build 0)  -->
<svg version="1.1" id="Capa_1" xmlns="http://www.w3.org/2000/svg" xmlns:xlink="http://www.w3.org/1999/xlink" x="0px" y="0px"
	 viewBox="0 0 200 200" style="enable-background:new 0 0 200 200;" xml:space="preserve">
<style type="text/css">
	.st0{fill:#FA6900;}
	.st1{fill:#FFFFFF;}
</style>
<path class="st0" d="M182.6,65.3l-87,88.4h76.1c11.2-15,17.9-33.5,17.9-53.7C189.5,87.7,187.1,76,182.6,65.3z"/>
<path class="st0" d="M100,189.6c10.8,0,21.2-1.9,30.9-5.5H69.1C78.7,187.6,89.1,189.6,100,189.6"/>
<g>
	<path class="st1" d="M120.8,65H63.5C48.9,65,38.4,53,38.4,38.4v-2.7h123.9C137,11.1,97,1.4,56.7,20.7C41.4,28,28.8,40.2,21.3,55.4
		C2.8,92.9,9.5,130.1,30,155.8L120.8,65z"/>
	<path class="st1" d="M34.1,160.6c1.3,1.4,2.6,2.8,4,4.1c0.4-0.5,0.8-1.1,1.3-1.6L136,65h-6.4L34.1,160.6z"/>
</g>
</svg>
