<?xml version="1.0" encoding="utf-8"?>
<!-- Generator: Adobe Illustrator 21.0.2, SVG Export Plug-In . SVG Version: 6.00 Build 0)  -->
<svg version="1.1" id="Capa_1" xmlns="http://www.w3.org/2000/svg" xmlns:xlink="http://www.w3.org/1999/xlink" x="0px" y="0px"
	 viewBox="0 0 200 200" style="enable-background:new 0 0 200 200;" xml:space="preserve">
<style type="text/css">
	.st0{fill:#FA6900;}
	.st1{fill:#5B5B5F;}
</style>
<g>
	<g>
		<path class="st0" d="M183.8,67l-88.3,89.7h77.2c11.4-15.2,18.1-34,18.1-54.5C190.8,89.7,188.3,77.8,183.8,67z"/>
		<path class="st0" d="M68.7,187.5c9.8,3.6,20.3,5.5,31.3,5.5s21.6-2,31.3-5.5H68.7z"/>
	</g>
	<g>
		<path class="st1" d="M121.1,66.7H62.9c-14.7,0-25.4-12.3-25.4-27V37h125.7C137.5,12,97,2.1,56.1,21.7
			c-15.5,7.4-28.3,19.8-35.9,35.2c-18.8,38-12,75.8,8.8,101.9L121.1,66.7z"/>
		<path class="st1" d="M33.1,163.6c1.3,1.4,2.7,2.9,4.1,4.2c0.4-0.6,0.8-1.1,1.3-1.6l98-99.5H130L33.1,163.6z"/>
	</g>
</g>
</svg>
