<?xml version="1.0" encoding="utf-8"?>
<!-- Generator: Adobe Illustrator 21.0.2, SVG Export Plug-In . SVG Version: 6.00 Build 0)  -->
<svg version="1.1" id="Capa_1" xmlns="http://www.w3.org/2000/svg" xmlns:xlink="http://www.w3.org/1999/xlink" x="0px" y="0px"
	 viewBox="0 0 456 66.5" style="enable-background:new 0 0 456 66.5;" xml:space="preserve">
<style type="text/css">
	.st0{fill:#5B5B5F;}
</style>
<g>
	<g>
		<path class="st0" d="M65.8,50.4c-3.4-3.4-5.3-7.9-5.3-12.8c0-4.9,1.9-9.4,5.3-12.8c3.3-3.3,7.9-5.3,12.8-5.3
			c4.9,0,9.4,1.9,12.7,5.2c3.3,3.3,5.3,7.8,5.3,12.7v13.9c0,1-0.4,1.9-1.1,2.7c-0.6,0.7-1.7,1.1-2.8,1.1c-2,0-3.5-1.5-3.7-3.4
			c-3.2,2.6-6.7,3.9-10.5,3.9C73.6,55.7,69.1,53.7,65.8,50.4z M86,45c1.9-1.9,3-4.5,3-7.4c0-2.9-1.1-5.5-3-7.4c-1.9-1.9-4.6-3-7.5-3
			c-2.8,0-5.5,1.1-7.4,3c-2,2-3.1,4.6-3.1,7.4c0,2.8,1.2,5.5,3.1,7.4c1.9,1.9,4.5,3.1,7.4,3.1C81.4,48.1,84.1,46.9,86,45z"/>
		<path class="st0" d="M105.3,54.1c-0.8-0.8-1.1-1.6-1.1-2.6V23.3c0-1,0.4-1.9,1.1-2.7c0.7-0.7,1.6-1.1,2.7-1.1c1.1,0,2,0.4,2.6,1.1
			c0.7,0.8,1.1,1.7,1.1,2.7c3.4-2.5,7.2-3.7,11.3-3.7h0.2c2.4,0,3.9,1.5,3.9,3.7c0,2.1-1.7,3.7-3.9,3.7h-0.2c-3,0-5.9,1.2-8,3.3
			c-2.1,2.1-3.3,5-3.3,8.1v13c0,2.1-1.6,3.7-3.7,3.7C106.9,55.2,106,54.8,105.3,54.1z"/>
		<path class="st0" d="M131.6,51.5v-41c0-2.1,1.7-3.7,3.8-3.7c2.1,0,3.7,1.6,3.7,3.7v41c0,2.1-1.6,3.7-3.7,3.7
			C133.2,55.2,131.6,53.6,131.6,51.5z"/>
		<path class="st0" d="M189.9,54.1c-2.6-1.1-4.5-2.8-5.6-4.9c-0.4-0.7-0.6-1.4-0.6-2.1c0-0.6,0.2-1.2,0.5-1.7c0.6-1.1,1.7-1.7,3-1.7
			c1.2,0,2.4,0.6,3.4,1.8c1.7,2.4,3.5,3.4,6.6,3.4c1.4,0,2.7-0.3,3.8-1c1.1-0.6,1.7-1.6,1.7-2.8c0-0.8-0.2-1.4-0.6-1.9
			c-0.7-0.9-1.9-1.6-3.5-2.1l-2-0.6c-3.6-1.2-6.2-2.4-8.2-3.9c-2.5-1.8-3.7-4.1-3.7-6.8c0-3.1,1.4-5.8,3.8-7.6
			c2.3-1.8,5.4-2.8,8.6-2.8c2.3,0,4.4,0.4,6.4,1.2c2.2,0.9,3.7,2.2,4.6,3.8c0.3,0.5,0.4,1.1,0.4,1.7c0,0.8-0.3,1.4-0.8,2
			c-0.7,0.8-1.5,1.1-2.5,1.1c-0.5,0-0.9-0.1-1.2-0.3l-1.5-1.1c-0.7-0.5-1.2-0.8-1.4-0.9c-1.1-0.6-2.2-0.9-3.4-0.9
			c-3.2,0-5.4,1.2-5.4,3.6c0,1.1,0.6,2,1.9,2.8c1.1,0.6,2.4,1.2,4.6,1.8c3.5,1.1,6,2.1,8,3.6c2.3,1.8,3.4,4.1,3.4,7
			c0,3-1.3,5.6-3.6,7.6c-2.3,2-5.5,3.1-9.1,3.1C194.6,55.6,192.1,55.1,189.9,54.1z"/>
		<path class="st0" d="M281,50.4c-3.4-3.4-5.3-7.9-5.3-12.8c0-4.9,1.9-9.4,5.3-12.8c3.3-3.3,7.9-5.3,12.8-5.3
			c4.9,0,9.4,1.9,12.7,5.2c3.3,3.3,5.3,7.8,5.3,12.7v13.9c0,1-0.4,1.9-1.1,2.7c-0.6,0.7-1.7,1.1-2.8,1.1c-2,0-3.5-1.5-3.7-3.4
			c-3.2,2.6-6.7,3.9-10.5,3.9C288.8,55.7,284.3,53.7,281,50.4z M301.2,45c1.9-1.9,3-4.5,3-7.4c0-2.9-1.1-5.5-3-7.4
			c-1.9-1.9-4.6-3-7.5-3c-2.8,0-5.5,1.1-7.4,3c-2,2-3.1,4.6-3.1,7.4c0,2.8,1.2,5.5,3.1,7.4c1.9,1.9,4.5,3.1,7.4,3.1
			C296.6,48.1,299.2,46.9,301.2,45z"/>
		<path class="st0" d="M364,50.4c-3.4-3.4-5.3-7.9-5.3-12.8c0-4.9,1.9-9.4,5.3-12.8c3.3-3.3,7.9-5.3,12.8-5.3
			c4.9,0,9.4,1.9,12.7,5.2c3.3,3.3,5.3,7.8,5.3,12.7v13.9c0,1-0.4,1.9-1.1,2.7c-0.6,0.7-1.7,1.1-2.8,1.1c-2,0-3.5-1.5-3.7-3.4
			c-3.2,2.6-6.7,3.9-10.5,3.9C371.9,55.7,367.3,53.7,364,50.4z M384.2,45c1.9-1.9,3-4.5,3-7.4c0-2.9-1.1-5.5-3-7.4
			c-1.9-1.9-4.6-3-7.5-3c-2.8,0-5.5,1.1-7.4,3c-2,2-3.1,4.6-3.1,7.4c0,2.8,1.2,5.5,3.1,7.4c1.9,1.9,4.5,3.1,7.4,3.1
			C379.6,48.1,382.3,46.9,384.2,45z"/>
		<path class="st0" d="M402.3,51.5v-41c0-2.1,1.7-3.7,3.8-3.7s3.7,1.6,3.7,3.7v41c0,2.1-1.6,3.7-3.7,3.7S402.3,53.6,402.3,51.5z"/>
		<path class="st0" d="M420.6,50.4c-3.4-3.4-5.3-7.9-5.3-12.8c0-4.9,1.9-9.4,5.3-12.8c3.3-3.3,7.9-5.3,12.8-5.3
			c4.9,0,9.4,1.9,12.7,5.2c3.3,3.3,5.3,7.8,5.3,12.7v13.9c0,1-0.4,1.9-1.1,2.7c-0.6,0.7-1.7,1.1-2.8,1.1c-2,0-3.5-1.5-3.7-3.4
			c-3.2,2.6-6.7,3.9-10.5,3.9C428.4,55.7,423.9,53.7,420.6,50.4z M440.8,45c1.9-1.9,3-4.5,3-7.4c0-2.9-1.1-5.5-3-7.4
			c-1.9-1.9-4.6-3-7.5-3c-2.8,0-5.5,1.1-7.4,3c-2,2-3.1,4.6-3.1,7.4c0,2.8,1.2,5.5,3.1,7.4c1.9,1.9,4.5,3.1,7.4,3.1
			C436.2,48.1,438.9,46.9,440.8,45z"/>
	</g>
	<path class="st0" d="M48.2,38.1c-0.8,1.9-2,3.6-3.5,5.1c-3.1,3.1-7.5,5-12.1,5c-4.7,0-9-1.8-12-5c-3.1-3.1-5-7.4-5-12.1
		c0-4.6,1.8-8.9,5-12c3.1-3.1,7.4-5,12-5c4.7,0,9,1.9,12.1,5c2.3,2.3,3.9,5.2,4.6,8.4l7.2-2.5c-0.6-2.2-1.4-4.3-2.6-6.4
		c-2.1-3.6-5.2-6.7-8.9-8.8c-3.7-2.2-8-3.4-12.5-3.4S24,7.6,20.1,9.8c-3.6,2.1-6.7,5.2-8.8,8.8C9.1,22.4,8,26.6,8,31.1
		c0,6.7,2.6,12.8,7.2,17.4c4.5,4.5,10.7,7.2,17.4,7.2c6.7,0,12.9-2.7,17.5-7.2c2.2-2.2,3.9-4.7,5.1-7.5L48.2,38.1z"/>
	<g>
		<path class="st0" d="M172.6,40.9c-0.5,1.6-1.4,3-2.5,4.1c-1.9,1.9-4.6,3.1-7.5,3.1c-2.8,0-5.5-1.2-7.4-3.1c-1.2-1.2-2-2.6-2.6-4.1
			h-7.8c0.7,3.6,2.4,6.9,5,9.5c3.3,3.3,7.9,5.3,12.8,5.3c4.9,0,9.4-2,12.8-5.3c2.6-2.6,4.3-5.9,5-9.5H172.6z"/>
		<path class="st0" d="M152.7,34.4c0.5-1.6,1.4-3,2.6-4.2c1.9-1.9,4.5-3,7.4-3c2.9,0,5.5,1.1,7.5,3c1.2,1.2,2,2.6,2.5,4.2h7.7
			c-0.7-3.6-2.4-6.9-5-9.5c-3.3-3.3-7.9-5.3-12.8-5.3c-4.9,0-9.4,2-12.8,5.3c-2.6,2.6-4.3,5.9-5,9.5H152.7z"/>
	</g>
	<path class="st0" d="M350.2,24.8c-3.3-3.3-7.9-5.3-12.8-5.3c-3.8,0-7.5,1.2-10.5,3.4V10.5c0-2.1-1.7-3.7-3.8-3.7
		c-2.1,0-3.7,1.6-3.7,3.7v23.9h8.1c0.5-1.6,1.4-3,2.6-4.2c1.9-1.9,4.6-3,7.4-3c2.9,0,5.5,1.1,7.5,3c1.9,1.9,3,4.5,3,7.4
		c0,2.8-1.1,5.5-3,7.4c-1.9,1.9-4.6,3.1-7.5,3.1c-2.9,0-5.5-1.1-7.4-3.1c-1.2-1.2-2-2.6-2.6-4.1h-8.1v10.6c0,2.1,1.6,3.7,3.7,3.7
		c1.9,0,3.4-1.2,3.7-3c3.1,2.2,6.8,3.4,10.6,3.4c4.9,0,9.4-2,12.8-5.3c3.3-3.3,5.3-7.8,5.3-12.7C355.4,32.7,353.5,28.1,350.2,24.8z"
		/>
	<path class="st0" d="M268.5,47.7l-26.2,0L271,13.1c0.6-0.8,0.9-1.6,0.9-2.5c0-1.1-0.4-2-1.3-2.8l-0.5-0.3c-0.6-0.4-1.3-0.6-2-0.7
		h-36.5l1.2,3c0.6,1.5,1.7,2.9,3.1,3.7c1,0.6,2.2,0.9,3.4,0.9h20.8L231.4,49c-0.6,0.6-0.9,1.4-0.9,2.4c0,1.1,0.5,2.2,1.3,2.9
		c0.7,0.6,1.5,1,2.4,1l0.4,0h34.1c2.2,0,3.8-1.7,3.7-3.9C272.3,49.3,270.5,47.7,268.5,47.7z"/>
</g>
</svg>
